<svg xmlns="http://www.w3.org/2000/svg" viewBox="0 0 120 120" width="120" height="120">
	<defs>
		<linearGradient id="grd1" gradientUnits="userSpaceOnUse"  x1="29.457" y1="31.493" x2="89.032" y2="91.077">
			<stop offset="0" stop-color="#ffb2c2"  />
			<stop offset="1" stop-color="#f85e8a"  />
		</linearGradient>
	</defs>
	<style>
		tspan { white-space:pre }
		.shp0 { fill: none } 
		.shp1 { fill: url(#grd1) } 
		.shp2 { mix-blend-mode: multiply;fill: #f757af } 
		.shp3 { mix-blend-mode: multiply;fill: #ab8eeb } 
		.shp4 { mix-blend-mode: multiply;fill: #ffbd88 } 
		.shp5 { fill: #ab8eeb } 
	</style>
	<g id="Layer">
		<g id="Layer">
			<path id="Layer" class="shp0" d="M5,62.83h57.41v-48.83l-57.41,0z" />
			<g id="Layer">
				<g id="Layer">
					<g id="Layer">
						<g id="Layer">
							<path id="Layer" class="shp1" d="M37.38,32.34c-10.53,0 -28.14,11.87 -24.37,35.18c4.44,27.43 25.07,39.23 45.08,39.23c20.01,0 48.43,-24.47 44.58,-54.93c-3.37,-26.74 -24.22,-35.38 -38.78,-37.43c-14.56,-2.06 -13.47,4.6 -4.74,9c14.46,7.28 22.2,18.44 19.14,38.08c-2.64,16.85 -16.83,33.17 -37.04,24.93c-20.21,-8.25 -16.51,-34.23 -1.8,-33.53c5.47,0.27 8.66,3.04 8.61,5.8c-0.1,4.65 -6.1,10.53 -1.58,13.51c3.43,2.26 13.15,-0.96 13.84,-15.97c0.78,-16.57 -11.09,-23.87 -22.94,-23.87z" />
							<path id="Layer" class="shp2" d="M34.59,27.46c0.35,-1.84 -7.78,-3.32 -8.29,0.75c-0.51,4.07 7.87,1.42 8.29,-0.75z" />
							<path id="Layer" class="shp3" d="M109.01,88.28c2.38,-5.48 -7.05,-6.04 -8.52,-4.36c-2.09,2.38 6.13,9.85 8.52,4.36z" />
							<path id="Layer" class="shp4" d="M98.89,93.66c4.49,-0.9 0.78,-5.72 -1.19,-4.89c-2.13,0.9 -0.64,5.25 1.19,4.89z" />
							<path id="Layer" class="shp3" d="M95.42,32.18c1,1.46 1.9,2.97 2.71,4.54c0.81,1.57 1.52,3.19 2.13,4.84c0.61,1.66 1.12,3.35 1.52,5.07c0.4,1.72 0.7,3.46 0.88,5.22c0.29,2.43 0.39,4.89 0.29,7.34c-0.1,2.45 -0.39,4.89 -0.88,7.29c-0.49,2.4 -1.16,4.76 -2.03,7.06c-0.86,2.29 -1.91,4.52 -3.12,6.64c9.48,-7.05 16.09,-16.54 16.97,-26.35c1.14,-12.23 -7.32,-18.03 -18.48,-21.64z" />
							<path id="Layer" class="shp3" d="M102.67,51.82c-0.19,-1.75 -0.48,-3.49 -0.89,-5.21c-0.4,-1.72 -0.91,-3.41 -1.52,-5.06c-0.61,-1.65 -1.32,-3.27 -2.13,-4.83c-0.81,-1.57 -1.71,-3.08 -2.71,-4.54c-13.87,-4.57 -31.81,-5.8 -40.77,-11.84c0.34,0.31 0.68,0.6 1.04,0.88c0.36,0.28 0.72,0.55 1.1,0.8c0.38,0.25 0.76,0.5 1.16,0.72c0.39,0.23 0.8,0.44 1.2,0.64c14.46,7.28 22.2,18.44 19.14,38.08c-2.64,16.85 -16.83,33.17 -37.04,24.93c-0.41,-0.17 -0.81,-0.34 -1.21,-0.53c-0.4,-0.19 -0.8,-0.38 -1.19,-0.59c-0.39,-0.21 -0.77,-0.42 -1.15,-0.65c-0.38,-0.23 -0.75,-0.46 -1.12,-0.71c18.92,13.33 44.02,8.45 60.39,-3.78c1.21,-2.13 2.25,-4.35 3.11,-6.65c0.86,-2.29 1.53,-4.65 2.02,-7.06c0.48,-2.4 0.78,-4.84 0.87,-7.29c0.1,-2.45 0,-4.9 -0.3,-7.33z" />
							<path id="Layer" class="shp4" d="M52.51,27.97c-16.89,-13.01 -20.99,-6.66 -15.84,-2.4c2.76,2.29 6.85,4.43 6.99,7.48c9.41,2.19 17.31,9.57 16.69,23.16c-0.23,5.08 -1.49,8.8 -3.2,11.48c6.62,-8.63 8.18,-29.77 -4.64,-39.72z" />
							<path id="Layer" class="shp4" d="M31.51,43.71c-20.09,10.05 -5.88,24.56 -3.06,16.72v-0.05c1.86,-4.57 5.74,-7.76 11.01,-7.51c5.47,0.27 8.66,3.04 8.61,5.8c-0.1,4.65 -6.1,10.53 -1.58,13.51c3.43,2.26 13.15,-0.96 13.84,-15.97c0.62,-13.62 -7.28,-20.96 -16.69,-23.16c0.12,2.64 -2.76,5.97 -12.13,10.66z" />
							<path id="Layer" class="shp2" d="M13.01,67.52c-0.22,-1.38 -0.37,-2.72 -0.45,-4.02c-8.84,9.96 -11.21,24.48 -0.07,33.65c6.17,5.08 15.19,6.52 24.6,4.87c-11.73,-5.73 -21.23,-16.91 -24.08,-34.5z" />
							<path id="Layer" class="shp2" d="M78.93,52.53c0.01,0.75 0.01,1.5 -0.02,2.24c-0.02,0.75 -0.06,1.49 -0.11,2.24c-0.05,0.75 -0.12,1.49 -0.21,2.23c-0.09,0.74 -0.19,1.48 -0.31,2.22c-2.63,16.85 -16.82,33.17 -37.03,24.93c-20.21,-8.25 -16.51,-34.23 -1.8,-33.53c0.6,0 1.17,0.1 1.71,0.17c-11.2,-2.17 -21.81,2.8 -28.6,10.46c0.08,1.3 0.23,2.64 0.45,4.02c2.85,17.6 12.35,28.77 24.08,34.51c20.6,-3.63 43.1,-22.01 41.83,-49.5z" />
							<path id="Layer" class="shp5" d="M31.2,18.37c-9.57,-7.33 -20.27,0.77 -8.21,2.2c8.65,1.02 12.94,1.43 8.21,-2.2z" />
						</g>
					</g>
				</g>
			</g>
		</g>
	</g>
</svg>