<svg data-v-73fdaaa2="" version="1.0"
    xmlns="http://www.w3.org/2000/svg"
    xmlns:xlink="http://www.w3.org/1999/xlink" width="100%" height="100%" viewBox="0 0 340.000000 250.000000" preserveAspectRatio="xMidYMid meet" color-interpolation-filters="sRGB" class="el-tooltip" style="margin: auto;">
    <g data-v-73fdaaa2="" fill="#f757af" class="icon-svg-group iconsvg" transform="translate(115.62000274658203,99.4826545715332)">
        <g class="iconsvg-imagesvg" transform="translate(0,0)">
            <rect fill="#f757af" fill-opacity="0" stroke-width="2" x="0" y="0" width="60" height="51.033696033697"></rect>
            <svg x="0" y="0" width="60" height="51.033696033697" class="imagesvg-svg">
                <svg
                    xmlns="http://www.w3.org/2000/svg" viewBox="0 0 113.96 96.93">
                    <defs>
                        <linearGradient id="a9dfec4a2-ee0e-464a-b07d-46ae04803a66" x1="25.56" y1="18.28" x2="87.82" y2="80.55" gradientUnits="userSpaceOnUse">
                            <stop offset="0" stop-color="#ffb2c2"></stop>
                            <stop offset="1" stop-color="#f85e8a"></stop>
                        </linearGradient>
                    </defs>
                    <g style="isolation:isolate">
                        <g>
                            <path d="M33.84 19.16c-11 0-29.41 12.41-25.47 36.77 4.64 28.67 26.2 41 47.11 41s50.61-25.57 46.59-57.41C98.55 11.57 76.76 2.55 61.54.4s-14.08 4.81-4.95 9.41c15.11 7.61 23.2 19.27 20 39.8C73.83 67.22 59 84.28 37.88 75.66S20.63 39.89 36 40.62c5.72.28 9.05 3.18 9 6.06-.1 4.86-6.38 11-1.65 14.12 3.58 2.36 13.74-1 14.46-16.69.82-17.32-11.59-24.95-23.97-24.95z" fill="url(#a9dfec4a2-ee0e-464a-b07d-46ae04803a66)"></path>
                            <path d="M30.92 14.06c.37-1.92-8.13-3.47-8.66.78s8.22 1.48 8.66-.78z" fill="#f757af" style="mix-blend-mode:multiply"></path>
                            <path d="M99.8 73.07c1.53-1.75 11.39-1.17 8.9 4.56s-11.08-2.07-8.9-4.56z" fill="#ab8eeb" style="mix-blend-mode:multiply"></path>
                            <path d="M96.88 78.14c2.06-.87 5.93 4.17 1.24 5.11-1.91.38-3.47-4.17-1.24-5.11z" fill="#ffbd88" style="mix-blend-mode:multiply"></path>
                            <path d="M94.5 19a44.83 44.83 0 0 1 7.57 20.56 48.18 48.18 0 0 1-6 29.6c9.91-7.37 16.82-17.29 17.74-27.54C115 28.84 106.16 22.78 94.5 19z" fill="#ab8eeb" style="mix-blend-mode:multiply"></path>
                            <path d="M102.07 39.52A44.83 44.83 0 0 0 94.5 19C80 14.22 61.26 12.94 51.89 6.63a19.56 19.56 0 0 0 4.7 3.18c15.11 7.61 23.2 19.27 20 39.8C73.83 67.22 59 84.28 37.88 75.66A26.58 26.58 0 0 1 33 73.07C52.77 87 79 81.9 96.11 69.12a48.18 48.18 0 0 0 5.96-29.6z" fill="#ab8eeb" style="mix-blend-mode:multiply"></path>
                            <path d="M49.65 14.6C32 1 27.71 7.64 33.1 12.09c2.88 2.39 7.16 4.63 7.3 7.82 9.83 2.29 18.09 10 17.44 24.2-.24 5.31-1.56 9.2-3.34 12 6.92-9.02 8.55-31.11-4.85-41.51z" fill="#ffbd88" style="mix-blend-mode:multiply"></path>
                            <path d="M27.71 31.05c-21 10.5-6.15 25.67-3.2 17.47v-.05c1.94-4.78 6-8.11 11.51-7.85 5.72.28 9.05 3.18 9 6.06-.1 4.86-6.38 11-1.65 14.12 3.58 2.36 13.74-1 14.46-16.69.65-14.23-7.61-21.91-17.44-24.2.13 2.76-2.88 6.24-12.68 11.14z" fill="#ffbd88" style="mix-blend-mode:multiply"></path>
                            <path d="M8.37 55.93c-.23-1.44-.39-2.84-.47-4.2-9.24 10.41-11.72 25.58-.07 35.17 6.45 5.31 15.88 6.81 25.71 5.09C21.28 86 11.35 74.32 8.37 55.93z" fill="#f757af" style="mix-blend-mode:multiply"></path>
                            <path d="M77.26 40.27a53.58 53.58 0 0 1-.68 9.34C73.83 67.22 59 84.28 37.88 75.66S20.63 39.89 36 40.62c.63 0 1.22.1 1.79.18C26.08 38.53 15 43.73 7.9 51.73c.08 1.36.24 2.76.47 4.2C11.35 74.32 21.28 86 33.54 92c21.53-3.79 45.04-23 43.72-51.73z" fill="#f757af" style="mix-blend-mode:multiply"></path>
                            <path d="M27.38 4.57c-10-7.66-21.18.8-8.58 2.3 9.04 1.07 13.52 1.49 8.58-2.3z" fill="#ab8eeb"></path>
                        </g>
                    </g>
                </svg>
            </svg>
        </g>
        <g transform="translate(67,3.7582855224609375)">
            <g class="tp-name iconsvg-namesvg" transform="translate(0,0)">
                <g>
                    <path transform="translate(3.96,27.8)" d="M12.36-27.52L12.36-26.48L10.04-26.12L10.04-26.12Q9.48-26.04 9.32-25.72L9.32-25.72L9.32-25.72Q9.16-25.40 9.16-24.64L9.16-24.64L9.16-8.08L9.16-8.08Q9.16-5.32 8.62-2.90L8.62-2.90L8.62-2.90Q8.08-0.48 7.08 1.20L7.08 1.20L7.08 1.20Q6.60 2 5.78 2.78L5.78 2.78L5.78 2.78Q4.96 3.56 3.94 4.20L3.94 4.20L3.94 4.20Q2.92 4.84 1.80 5.22L1.80 5.22L1.80 5.22Q0.68 5.60-0.44 5.60L-0.44 5.60L-0.44 5.60Q-1 5.60-1.62 5.54L-1.62 5.54L-1.62 5.54Q-2.24 5.48-2.76 5.30L-2.76 5.30L-2.76 5.30Q-3.28 5.12-3.62 4.74L-3.62 4.74L-3.62 4.74Q-3.96 4.36-3.96 3.72L-3.96 3.72L-3.96 3.72Q-3.96 3.04-3.46 2.46L-3.46 2.46L-3.46 2.46Q-2.96 1.88-2.24 1.88L-2.24 1.88L-2.24 1.88Q-1.56 1.88-0.94 2.24L-0.94 2.24L-0.94 2.24Q-0.32 2.60 0.48 3.20L0.48 3.20L0.48 3.20Q1.08 3.64 1.74 3.32L1.74 3.32L1.74 3.32Q2.40 3 2.68 2.56L2.68 2.56L2.68 2.56Q3.20 1.76 3.48 1.20L3.48 1.20L3.48 1.20Q3.76 0.64 3.88-0.36L3.88-0.36L3.88-0.36Q4-1.36 4.02-3.08L4.02-3.08L4.02-3.08Q4.04-4.80 4.04-7.92L4.04-7.92L4.04-24.76L4.04-24.76Q4.04-25.20 4-25.46L4-25.46L4-25.46Q3.96-25.72 3.80-25.86L3.80-25.86L3.80-25.86Q3.64-26 3.30-26.08L3.30-26.08L3.30-26.08Q2.96-26.16 2.32-26.24L2.32-26.24L0.76-26.48L0.76-27.52L0.76-27.52Q1-27.48 1.70-27.46L1.70-27.46L1.70-27.46Q2.40-27.44 3.32-27.42L3.32-27.42L3.32-27.42Q4.24-27.40 5.28-27.40L5.28-27.40L5.28-27.40Q6.32-27.40 7.32-27.40L7.32-27.40L7.32-27.40Q11.32-27.40 12.36-27.52L12.36-27.52ZM36.88-9.12L37.80-9.12L37.80-9.12Q37.68-8.52 37.56-7.70L37.56-7.70L37.56-7.70Q37.44-6.88 37.28-6L37.28-6L37.28-6Q37.12-5.12 36.94-4.28L36.94-4.28L36.94-4.28Q36.76-3.44 36.56-2.76L36.56-2.76L36.56-2.76Q35.28-2.24 33.36-2L33.36-2L33.36-2Q31.44-1.76 28.64-1.76L28.64-1.76L28.64-1.76Q25.84-1.76 23.30-2.60L23.30-2.60L23.30-2.60Q20.76-3.44 18.82-5.04L18.82-5.04L18.82-5.04Q16.88-6.64 15.72-8.98L15.72-8.98L15.72-8.98Q14.56-11.32 14.56-14.36L14.56-14.36L14.56-14.36Q14.56-17.40 15.60-19.88L15.60-19.88L15.60-19.88Q16.64-22.36 18.46-24.12L18.46-24.12L18.46-24.12Q20.28-25.88 22.74-26.84L22.74-26.84L22.74-26.84Q25.20-27.80 28.04-27.80L28.04-27.80L28.04-27.80Q30.36-27.80 32.04-27.54L32.04-27.54L32.04-27.54Q33.72-27.28 34.80-26.96L34.80-26.96L34.80-26.96Q36.08-26.60 36.92-26.16L36.92-26.16L36.92-26.16Q36.96-25.68 37-24.82L37-24.82L37-24.82Q37.04-23.96 37.06-23L37.06-23L37.06-23Q37.08-22.04 37.06-21.16L37.06-21.16L37.06-21.16Q37.04-20.28 37.04-19.76L37.04-19.76L35.88-19.76L35.88-19.76Q35.76-20.92 35.34-22.06L35.34-22.06L35.34-22.06Q34.92-23.20 34.10-24.12L34.10-24.12L34.10-24.12Q33.28-25.04 32.02-25.60L32.02-25.60L32.02-25.60Q30.76-26.16 28.96-26.16L28.96-26.16L28.96-26.16Q26.96-26.16 25.34-25.52L25.34-25.52L25.34-25.52Q23.72-24.88 22.58-23.56L22.58-23.56L22.58-23.56Q21.44-22.24 20.80-20.18L20.80-20.18L20.80-20.18Q20.16-18.12 20.16-15.28L20.16-15.28L20.16-15.28Q20.16-12.08 20.90-9.84L20.90-9.84L20.90-9.84Q21.64-7.60 22.90-6.18L22.90-6.18L22.90-6.18Q24.16-4.76 25.88-4.10L25.88-4.10L25.88-4.10Q27.60-3.44 29.60-3.44L29.60-3.44L29.60-3.44Q30.96-3.44 32.04-3.84L32.04-3.84L32.04-3.84Q33.12-4.24 33.98-4.96L33.98-4.96L33.98-4.96Q34.84-5.68 35.54-6.74L35.54-6.74L35.54-6.74Q36.24-7.80 36.88-9.12L36.88-9.12Z"></path>
                </g>
            </g>
            <g class="tp-slogan iconsvg-slogansvg" fill="#333" transform="translate(4.239997863769531,34.799997329711914)">
                <g>
                    <path transform="translate(-0.1875,8.578125)" d="M0.19-1.92L0.19-2.77L1.27-2.77L1.27-2.16L1.27-2.16Q1.27-0.75 2.58-0.75L2.58-0.75L2.58-0.75Q3.94-0.75 3.94-2.25L3.94-2.25L3.94-8.58L5.11-8.58L5.11-2.30L5.11-2.30Q5.06 0.09 2.63 0.14L2.63 0.14L2.63 0.14Q0.33 0.09 0.19-1.92L0.19-1.92ZM11.06-1.97L11.06-1.97L12.09-1.97L12.09-1.97Q11.91-0.89 10.97-0.23L10.97-0.23L10.97-0.23Q10.45 0.09 9.28 0.09L9.28 0.09L9.28 0.09Q6.61 0 6.47-2.95L6.47-2.95L6.47-2.95Q6.56-6.38 9.47-6.47L9.47-6.47L9.47-6.47Q12.14-6.42 12.19-2.77L12.19-2.77L7.59-2.77L7.59-2.77Q7.59-0.70 9.42-0.70L9.42-0.70L9.42-0.70Q10.73-0.80 11.06-1.97ZM7.59-3.61L7.59-3.61L11.11-3.61L11.11-3.61Q10.97-5.48 9.33-5.48L9.33-5.48L9.33-5.48Q7.78-5.34 7.59-3.61ZM18-4.45L18-4.45L16.97-4.45L16.97-4.45Q16.97-5.53 15.47-5.53L15.47-5.53L15.47-5.53Q14.30-5.48 14.25-4.64L14.25-4.64L14.25-4.64Q14.16-4.03 15.38-3.80L15.38-3.80L16.45-3.56L16.45-3.56Q18.23-3.14 18.19-1.88L18.19-1.88L18.19-1.88Q18.09 0 15.75 0.09L15.75 0.09L15.75 0.09Q13.08 0.09 13.03-2.02L13.03-2.02L14.02-2.02L14.02-2.02Q14.11-0.70 15.75-0.70L15.75-0.70L15.75-0.70Q17.11-0.75 17.16-1.73L17.16-1.73L17.16-1.73Q17.25-2.30 15.94-2.63L15.94-2.63L14.67-2.91L14.67-2.91Q13.22-3.28 13.22-4.41L13.22-4.41L13.22-4.41Q13.31-6.33 15.61-6.47L15.61-6.47L15.61-6.47Q17.86-6.42 18-4.45ZM24-4.45L24-4.45L22.97-4.45L22.97-4.45Q22.97-5.53 21.47-5.53L21.47-5.53L21.47-5.53Q20.30-5.48 20.25-4.64L20.25-4.64L20.25-4.64Q20.16-4.03 21.38-3.80L21.38-3.80L22.45-3.56L22.45-3.56Q24.23-3.14 24.19-1.88L24.19-1.88L24.19-1.88Q24.09 0 21.75 0.09L21.75 0.09L21.75 0.09Q19.08 0.09 19.03-2.02L19.03-2.02L20.02-2.02L20.02-2.02Q20.11-0.70 21.75-0.70L21.75-0.70L21.75-0.70Q23.11-0.75 23.16-1.73L23.16-1.73L23.16-1.73Q23.25-2.30 21.94-2.63L21.94-2.63L20.67-2.91L20.67-2.91Q19.22-3.28 19.22-4.41L19.22-4.41L19.22-4.41Q19.31-6.33 21.61-6.47L21.61-6.47L21.61-6.47Q23.86-6.42 24-4.45ZM25.45-6.28L26.53-6.28L26.53 0L25.45 0L25.45-6.28ZM26.53-8.58L26.53-7.41L25.45-7.41L25.45-8.58L26.53-8.58ZM32.34-1.97L32.34-1.97L33.38-1.97L33.38-1.97Q33.19-0.89 32.25-0.23L32.25-0.23L32.25-0.23Q31.73 0.09 30.56 0.09L30.56 0.09L30.56 0.09Q27.89 0 27.75-2.95L27.75-2.95L27.75-2.95Q27.84-6.38 30.75-6.47L30.75-6.47L30.75-6.47Q33.42-6.42 33.47-2.77L33.47-2.77L28.88-2.77L28.88-2.77Q28.88-0.70 30.70-0.70L30.70-0.70L30.70-0.70Q32.02-0.80 32.34-1.97ZM28.88-3.61L28.88-3.61L32.39-3.61L32.39-3.61Q32.25-5.48 30.61-5.48L30.61-5.48L30.61-5.48Q29.06-5.34 28.88-3.61Z"></path>
                </g>
            </g>
        </g>
    </g>
</svg>