<svg xmlns="http://www.w3.org/2000/svg" viewBox="0 0 240 140" width="240" height="140">
	<defs>
		<linearGradient id="grd1" gradientUnits="userSpaceOnUse"  x1="46.56" y1="40.282" x2="108.82" y2="102.552">
			<stop offset="0" stop-color="#ffb2c2"  />
			<stop offset="1" stop-color="#f85e8a"  />
		</linearGradient>
	</defs>
	<style>
		tspan { white-space:pre }
		.shp0 { fill: none } 
		.shp1 { fill: url(#grd1) } 
		.shp2 { mix-blend-mode: multiply;fill: #f757af } 
		.shp3 { mix-blend-mode: multiply;fill: #ab8eeb } 
		.shp4 { mix-blend-mode: multiply;fill: #ffbd88 } 
		.shp5 { fill: #ab8eeb } 
		.shp6 { fill: #f757af } 
		.shp7 { fill: #333333 } 
	</style>
	<g id="Layer">
		<g id="Layer">
			<path id="Layer" class="shp0" d="M21,73.04h60v-51.03h-60z" />
			<g id="Layer">
				<g id="Layer">
					<g id="Layer">
						<g id="Layer">
							<path id="Layer" class="shp1" d="M54.84,41.16c-11,0 -29.41,12.41 -25.47,36.77c4.64,28.67 26.2,41 47.11,41c20.91,0 50.61,-25.57 46.59,-57.41c-3.52,-27.95 -25.31,-36.97 -40.53,-39.12c-15.22,-2.15 -14.08,4.81 -4.95,9.41c15.11,7.61 23.2,19.27 20,39.8c-2.76,17.61 -17.59,34.67 -38.71,26.05c-21.12,-8.62 -17.25,-35.77 -1.88,-35.04c5.72,0.28 9.05,3.18 9,6.06c-0.1,4.86 -6.38,11 -1.65,14.12c3.58,2.36 13.74,-1 14.46,-16.69c0.82,-17.32 -11.59,-24.95 -23.97,-24.95z" />
							<path id="Layer" class="shp2" d="M51.92,36.06c0.37,-1.92 -8.13,-3.47 -8.66,0.78c-0.53,4.25 8.22,1.48 8.66,-0.78z" />
							<path id="Layer" class="shp3" d="M129.7,99.63c2.49,-5.73 -7.37,-6.31 -8.9,-4.56c-2.18,2.49 6.41,10.29 8.9,4.56z" />
							<path id="Layer" class="shp4" d="M119.12,105.25c4.69,-0.94 0.82,-5.98 -1.24,-5.11c-2.23,0.94 -0.67,5.49 1.24,5.11z" />
							<path id="Layer" class="shp3" d="M115.5,41c1.04,1.52 1.99,3.11 2.83,4.75c0.85,1.64 1.59,3.33 2.23,5.06c0.64,1.73 1.17,3.5 1.59,5.3c0.42,1.8 0.73,3.62 0.92,5.45c0.3,2.54 0.4,5.11 0.3,7.67c-0.1,2.56 -0.41,5.11 -0.92,7.62c-0.51,2.51 -1.22,4.98 -2.12,7.37c-0.9,2.4 -1.99,4.72 -3.26,6.94c9.91,-7.37 16.82,-17.29 17.74,-27.54c1.19,-12.78 -7.65,-18.84 -19.31,-22.62z" />
							<path id="Layer" class="shp3" d="M123.07,61.52c-0.2,-1.83 -0.51,-3.65 -0.93,-5.44c-0.42,-1.79 -0.95,-3.56 -1.59,-5.29c-0.64,-1.73 -1.38,-3.42 -2.23,-5.05c-0.85,-1.64 -1.79,-3.22 -2.83,-4.74c-14.5,-4.78 -33.24,-6.06 -42.61,-12.37c0.35,0.32 0.71,0.63 1.08,0.92c0.37,0.29 0.76,0.57 1.15,0.84c0.39,0.27 0.8,0.52 1.21,0.75c0.41,0.24 0.83,0.46 1.26,0.66c15.11,7.61 23.2,19.27 20,39.8c-2.76,17.61 -17.59,34.67 -38.71,26.05c-0.43,-0.17 -0.85,-0.36 -1.27,-0.55c-0.42,-0.19 -0.83,-0.4 -1.24,-0.62c-0.41,-0.22 -0.81,-0.44 -1.2,-0.68c-0.4,-0.24 -0.79,-0.48 -1.17,-0.74c19.77,13.93 46,8.83 63.11,-3.95c1.27,-2.23 2.35,-4.55 3.25,-6.95c0.9,-2.4 1.6,-4.86 2.11,-7.37c0.51,-2.51 0.81,-5.06 0.91,-7.62c0.1,-2.56 0,-5.12 -0.31,-7.66z" />
							<path id="Layer" class="shp4" d="M70.65,36.6c-17.65,-13.6 -21.94,-6.96 -16.55,-2.51c2.88,2.39 7.16,4.63 7.3,7.82c9.83,2.29 18.09,10 17.44,24.2c-0.24,5.31 -1.56,9.2 -3.34,12c6.92,-9.02 8.55,-31.11 -4.85,-41.51z" />
							<path id="Layer" class="shp4" d="M48.71,53.05c-21,10.5 -6.15,25.67 -3.2,17.47v-0.05c1.94,-4.78 6,-8.11 11.51,-7.85c5.72,0.28 9.05,3.18 9,6.06c-0.1,4.86 -6.38,11 -1.65,14.12c3.58,2.36 13.74,-1 14.46,-16.69c0.65,-14.23 -7.61,-21.91 -17.44,-24.2c0.13,2.76 -2.88,6.24 -12.68,11.14z" />
							<path id="Layer" class="shp2" d="M29.37,77.93c-0.23,-1.44 -0.39,-2.84 -0.47,-4.2c-9.24,10.41 -11.72,25.58 -0.07,35.17c6.45,5.31 15.88,6.81 25.71,5.09c-12.26,-5.99 -22.19,-17.67 -25.17,-36.06z" />
							<path id="Layer" class="shp2" d="M98.26,62.27c0.01,0.78 0.01,1.56 -0.02,2.34c-0.02,0.78 -0.06,1.56 -0.12,2.34c-0.06,0.78 -0.13,1.56 -0.22,2.33c-0.09,0.78 -0.2,1.55 -0.32,2.32c-2.75,17.61 -17.58,34.67 -38.7,26.05c-21.12,-8.62 -17.25,-35.77 -1.88,-35.04c0.63,0 1.22,0.1 1.79,0.18c-11.71,-2.27 -22.79,2.93 -29.89,10.93c0.08,1.36 0.24,2.76 0.47,4.2c2.98,18.39 12.91,30.07 25.17,36.07c21.53,-3.79 45.04,-23 43.72,-51.73z" />
							<path id="Layer" class="shp5" d="M48.38,26.57c-10,-7.66 -21.18,0.8 -8.58,2.3c9.04,1.07 13.52,1.49 8.58,-2.3z" />
						</g>
					</g>
				</g>
			</g>
		</g>
		<g id="Layer">
			<g id="Layer">
				<g id="Layer">
					<path id="Layer" class="shp6" d="M171.63,33.53c-1.3,0.15 -4.45,0.23 -9.46,0.23v0v0c-1.25,0 -2.53,0 -3.83,0v0v0c-1.3,0 -2.53,-0.01 -3.68,-0.04v0v0c-1.15,-0.03 -2.16,-0.05 -3.04,-0.08v0v0c-0.88,-0.03 -1.46,-0.06 -1.76,-0.11v0v1.95l2.93,0.45v0c0.8,0.1 1.41,0.2 1.84,0.3v0v0c0.43,0.1 0.74,0.24 0.94,0.41v0v0c0.2,0.18 0.33,0.43 0.38,0.75v0v0c0.05,0.33 0.08,0.76 0.08,1.31v0l0,31.61v0c0,3.9 -0.01,6.93 -0.04,9.08v0v0c-0.03,2.15 -0.11,3.85 -0.26,5.11v0v0c-0.15,1.25 -0.4,2.23 -0.75,2.93v0v0c-0.35,0.7 -0.85,1.55 -1.5,2.55v0v0c-0.35,0.55 -0.94,1.03 -1.76,1.43v0v0c-0.83,0.4 -1.61,0.33 -2.36,-0.23v0v0c-1,-0.75 -1.89,-1.35 -2.67,-1.8v0v0c-0.78,-0.45 -1.59,-0.68 -2.44,-0.68v0v0c-0.9,0 -1.66,0.36 -2.29,1.09v0v0c-0.63,0.73 -0.94,1.51 -0.94,2.36v0v0c0,0.8 0.21,1.44 0.64,1.91v0v0c0.43,0.48 0.96,0.83 1.61,1.05v0v0c0.65,0.23 1.36,0.38 2.14,0.45v0v0c0.78,0.08 1.51,0.11 2.21,0.11v0v0c1.4,0 2.8,-0.24 4.2,-0.71v0v0c1.4,-0.48 2.74,-1.11 4.02,-1.91v0v0c1.28,-0.8 2.43,-1.69 3.45,-2.67v0v0c1.03,-0.98 1.84,-1.96 2.44,-2.97v0v0c1.25,-2.1 2.21,-4.67 2.89,-7.7v0v0c0.68,-3.03 1.01,-6.27 1.01,-9.72v0l0,-31.08v0c0,-0.95 0.1,-1.63 0.3,-2.03v0v0c0.2,-0.4 0.65,-0.65 1.35,-0.75v0l4.35,-0.68v-1.95zM217.65,68.06c-0.8,1.65 -1.64,3.14 -2.52,4.47v0v0c-0.88,1.33 -1.85,2.44 -2.93,3.34v0v0c-1.08,0.9 -2.29,1.6 -3.64,2.1v0v0c-1.35,0.5 -2.88,0.75 -4.58,0.75v0v0c-2.5,0 -4.83,-0.41 -6.98,-1.24v0v0c-2.15,-0.83 -4.02,-2.13 -5.59,-3.9v0v0c-1.58,-1.78 -2.83,-4.07 -3.75,-6.87v0v0c-0.93,-2.8 -1.39,-6.21 -1.39,-10.21v0v0c0,-3.55 0.4,-6.62 1.2,-9.2v0v0c0.8,-2.58 1.91,-4.69 3.34,-6.34v0v0c1.43,-1.65 3.15,-2.88 5.18,-3.68v0v0c2.03,-0.8 4.29,-1.2 6.79,-1.2v0v0c2.25,0 4.17,0.35 5.74,1.05v0v0c1.58,0.7 2.88,1.63 3.9,2.78v0v0c1.03,1.15 1.8,2.44 2.33,3.87v0v0c0.53,1.43 0.86,2.87 1.01,4.32v0h2.18v0c0,-0.65 0.01,-1.53 0.04,-2.63v0v0c0.03,-1.1 0.03,-2.25 0,-3.45v0v0c-0.03,-1.2 -0.06,-2.34 -0.11,-3.42v0v0c-0.05,-1.08 -0.1,-1.91 -0.15,-2.52v0v0c-1.05,-0.55 -2.38,-1.05 -3.98,-1.5v0v0c-1.35,-0.4 -3.08,-0.76 -5.18,-1.09v0v0c-2.1,-0.33 -4.6,-0.49 -7.51,-0.49v0v0c-3.55,0 -6.87,0.6 -9.95,1.8v0v0c-3.08,1.2 -5.76,2.9 -8.03,5.11v0v0c-2.28,2.2 -4.07,4.85 -5.37,7.96v0v0c-1.3,3.1 -1.95,6.56 -1.95,10.36v0v0c0,3.8 0.73,7.17 2.18,10.1v0v0c1.45,2.93 3.39,5.39 5.82,7.4v0v0c2.43,2 5.23,3.53 8.41,4.58v0v0c3.18,1.05 6.52,1.58 10.02,1.58v0v0c3.5,0 6.46,-0.15 8.86,-0.45v0v0c2.4,-0.3 4.4,-0.78 6.01,-1.43v0v0c0.25,-0.85 0.49,-1.8 0.71,-2.85v0v0c0.23,-1.05 0.44,-2.13 0.64,-3.23v0v0c0.2,-1.1 0.38,-2.16 0.53,-3.19v0v0c0.15,-1.03 0.3,-1.91 0.45,-2.67v0l-1.73,0z" />
				</g>
			</g>
			<g id="Layer">
				<g id="Layer">
					<path id="Layer" class="shp7" d="M148.96,109.22h2.03v1.14c0,1.76 0.82,2.65 2.46,2.65c1.7,0 2.55,-0.94 2.55,-2.82v-11.88h2.2v11.79c-0.06,2.99 -1.61,4.52 -4.65,4.58c-2.88,-0.06 -4.4,-1.35 -4.58,-3.87zM169.36,110.72h1.93c-0.23,1.35 -0.93,2.44 -2.1,3.27c-0.65,0.4 -1.71,0.6 -3.17,0.6c-3.34,-0.11 -5.1,-2.01 -5.27,-5.71c0.11,-4.29 1.99,-6.49 5.63,-6.61c3.34,0.06 5.04,2.38 5.11,6.94h-8.63c0,2.59 1.14,3.89 3.43,3.89c1.64,-0.13 2.67,-0.92 3.08,-2.38zM162.85,107.64h6.61c-0.18,-2.34 -1.29,-3.51 -3.34,-3.51c-1.94,0.18 -3.03,1.35 -3.27,3.51zM182.39,106.06h-1.93c0,-1.35 -0.94,-2.03 -2.82,-2.03c-1.46,0.06 -2.23,0.62 -2.29,1.67c-0.11,0.76 0.59,1.29 2.12,1.58l2.01,0.45c2.23,0.53 3.32,1.58 3.27,3.15c-0.13,2.35 -1.65,3.58 -4.58,3.7c-3.34,0 -5.04,-1.32 -5.11,-3.96h1.86c0.11,1.65 1.19,2.48 3.25,2.48c1.7,-0.06 2.58,-0.71 2.65,-1.93c0.11,-0.71 -0.65,-1.28 -2.29,-1.69l-2.38,-0.53c-1.81,-0.46 -2.72,-1.4 -2.72,-2.82c0.11,-2.4 1.61,-3.69 4.49,-3.87c2.82,0.06 4.31,1.33 4.49,3.79zM193.65,106.06h-1.93c0,-1.35 -0.94,-2.03 -2.82,-2.03c-1.46,0.06 -2.23,0.62 -2.29,1.67c-0.11,0.76 0.59,1.29 2.12,1.58l2.01,0.45c2.23,0.53 3.32,1.58 3.27,3.15c-0.13,2.35 -1.65,3.58 -4.58,3.7c-3.34,0 -5.04,-1.32 -5.11,-3.96h1.86c0.11,1.65 1.19,2.48 3.25,2.48c1.7,-0.06 2.58,-0.71 2.65,-1.93c0.11,-0.71 -0.65,-1.28 -2.29,-1.69l-2.38,-0.53c-1.81,-0.46 -2.72,-1.4 -2.72,-2.82c0.11,-2.4 1.61,-3.69 4.49,-3.87c2.82,0.06 4.31,1.33 4.49,3.79zM196.37,102.63h2.03v11.79h-2.03zM198.4,98.31v2.2h-2.03v-2.2zM209.31,110.72h1.95c-0.24,1.35 -0.94,2.44 -2.12,3.27c-0.65,0.4 -1.71,0.6 -3.17,0.6c-3.34,-0.11 -5.1,-2.01 -5.27,-5.71c0.11,-4.29 1.99,-6.49 5.63,-6.61c3.34,0.06 5.04,2.38 5.11,6.94h-8.62c0,2.59 1.14,3.89 3.42,3.89c1.65,-0.13 2.68,-0.92 3.08,-2.38zM202.81,107.64h6.59c-0.18,-2.34 -1.29,-3.51 -3.34,-3.51c-1.94,0.18 -3.02,1.35 -3.25,3.51z" />
				</g>
			</g>
		</g>
	</g>
</svg>